<svg id="svg" fill="#c44d45" stroke="#c44d45" width="200" height="200" version="1.1" viewBox="144 144 512 512" xmlns="http://www.w3.org/2000/svg">
    <g id="IconSvg_bgCarrier" stroke-width="0"></g>
    <g id="IconSvg_tracerCarrier" stroke-linecap="round" stroke-linejoin="round" stroke="#CCCCCC" stroke-width="0">
      <g xmlns="http://www.w3.org/2000/svg">
  <path d="m440.81 433.75h97.234v25.191h-97.234z"></path>
  <path d="m440.81 387.4h116.38v25.191h-116.38z"></path>
  <path d="m440.81 478.59h48.871v25.191h-48.871z"></path>
  <path d="m575.83 208.55h-349.64c-38.289 0-69.523 34.258-69.523 77.082v212.61c0 42.32 31.234 76.578 69.527 76.578h349.64c38.289 0 69.527-34.258 69.527-76.578l-0.003906-212.61c0-42.824-31.238-77.082-69.527-77.082zm-349.64 27.207h349.64c23.176 0 42.32 22.168 42.32 49.375v12.594h-433.78v-12.594c0-27.207 18.641-49.375 41.816-49.375zm349.64 311.86h-349.64c-23.176 0-42.32-22.168-42.32-49.375v-172.8h433.78v172.3c0.50391 27.203-18.641 49.875-41.816 49.875z"></path>
  <path d="m469.02 266.49c0 9.4609-7.668 17.129-17.129 17.129s-17.129-7.668-17.129-17.129c0-9.4609 7.668-17.129 17.129-17.129s17.129 7.668 17.129 17.129"></path>
  <path d="m521.42 266.49c0 9.4609-7.6719 17.129-17.133 17.129-9.457 0-17.129-7.668-17.129-17.129 0-9.4609 7.6719-17.129 17.129-17.129 9.4609 0 17.133 7.668 17.133 17.129"></path>
  <path d="m577.34 266.49c0 9.4609-7.668 17.129-17.129 17.129-9.4609 0-17.129-7.668-17.129-17.129 0-9.4609 7.668-17.129 17.129-17.129 9.4609 0 17.129 7.668 17.129 17.129"></path>
  <path d="m381.86 424.68c-1.0078-4.0312-4.5352-6.5508-8.5664-7.0547l-32.746-4.5352-14.609-29.727c-1.5117-3.5273-5.543-5.543-9.5742-5.543s-7.5586 2.0156-9.5742 5.543l-14.609 29.727-32.746 4.5352c-4.0312 0.50391-7.0547 3.5273-8.5664 7.0547-1.0078 3.5273 0 8.0625 2.5195 10.578l23.68 23.176-5.543 32.746c-0.50391 4.0312 1.0078 8.0625 4.0312 10.078 3.0234 2.5195 7.5586 2.5195 11.082 1.0078l29.223-15.617 29.223 15.617c1.5117 1.0078 3.0234 1.0078 5.0391 1.0078s4.5352-0.50391 6.0469-2.0156c3.0234-2.5195 5.0391-6.5508 4.0312-10.078l-5.543-32.746 23.68-23.176c3.5234-2.5156 4.5273-6.5469 3.5234-10.578z"></path>
 </g>

      </g>
     <g id="IconSvg_iconCarrier">
      <g xmlns="http://www.w3.org/2000/svg">
  <path d="m440.81 433.75h97.234v25.191h-97.234z"></path>
  <path d="m440.81 387.4h116.38v25.191h-116.38z"></path>
  <path d="m440.81 478.59h48.871v25.191h-48.871z"></path>
  <path d="m575.83 208.55h-349.64c-38.289 0-69.523 34.258-69.523 77.082v212.61c0 42.32 31.234 76.578 69.527 76.578h349.64c38.289 0 69.527-34.258 69.527-76.578l-0.003906-212.61c0-42.824-31.238-77.082-69.527-77.082zm-349.64 27.207h349.64c23.176 0 42.32 22.168 42.32 49.375v12.594h-433.78v-12.594c0-27.207 18.641-49.375 41.816-49.375zm349.64 311.86h-349.64c-23.176 0-42.32-22.168-42.32-49.375v-172.8h433.78v172.3c0.50391 27.203-18.641 49.875-41.816 49.875z"></path>
  <path d="m469.02 266.49c0 9.4609-7.668 17.129-17.129 17.129s-17.129-7.668-17.129-17.129c0-9.4609 7.668-17.129 17.129-17.129s17.129 7.668 17.129 17.129"></path>
  <path d="m521.42 266.49c0 9.4609-7.6719 17.129-17.133 17.129-9.457 0-17.129-7.668-17.129-17.129 0-9.4609 7.6719-17.129 17.129-17.129 9.4609 0 17.133 7.668 17.133 17.129"></path>
  <path d="m577.34 266.49c0 9.4609-7.668 17.129-17.129 17.129-9.4609 0-17.129-7.668-17.129-17.129 0-9.4609 7.668-17.129 17.129-17.129 9.4609 0 17.129 7.668 17.129 17.129"></path>
  <path d="m381.86 424.68c-1.0078-4.0312-4.5352-6.5508-8.5664-7.0547l-32.746-4.5352-14.609-29.727c-1.5117-3.5273-5.543-5.543-9.5742-5.543s-7.5586 2.0156-9.5742 5.543l-14.609 29.727-32.746 4.5352c-4.0312 0.50391-7.0547 3.5273-8.5664 7.0547-1.0078 3.5273 0 8.0625 2.5195 10.578l23.68 23.176-5.543 32.746c-0.50391 4.0312 1.0078 8.0625 4.0312 10.078 3.0234 2.5195 7.5586 2.5195 11.082 1.0078l29.223-15.617 29.223 15.617c1.5117 1.0078 3.0234 1.0078 5.0391 1.0078s4.5352-0.50391 6.0469-2.0156c3.0234-2.5195 5.0391-6.5508 4.0312-10.078l-5.543-32.746 23.68-23.176c3.5234-2.5156 4.5273-6.5469 3.5234-10.578z"></path>
 </g>

      </g>
      </svg>